<svg width="40" height="27" viewBox="0 0 40 27" fill="none" xmlns="http://www.w3.org/2000/svg">
<path d="M20.0003 4.5C21.7684 4.5 23.4641 4.97411 24.7144 5.81802C25.9646 6.66193 26.667 7.80653 26.667 9C26.667 10.1935 25.9646 11.3381 24.7144 12.182C23.4641 13.0259 21.7684 13.5 20.0003 13.5C18.2322 13.5 16.5365 13.0259 15.2863 12.182C14.036 11.3381 13.3337 10.1935 13.3337 9C13.3337 7.80653 14.036 6.66193 15.2863 5.81802C16.5365 4.97411 18.2322 4.5 20.0003 4.5ZM20.0003 15.75C27.367 15.75 33.3337 17.7638 33.3337 20.25V22.5H6.66699V20.25C6.66699 17.7638 12.6337 15.75 20.0003 15.75Z" fill="black"/>
</svg>
